# xmcd
#
# Track frame offsets: 
#        150
#        16715
#        38681
#        58935
#        80764
#        89280
#        100659
#        127940
#        146268
#        163483
#        187774
#        198502
#        226342
#        249333
#        278648
#        294889
#        307169
#        330397
#
# Disc length: 4572 seconds
#
# Revision: 1
# Processed by: cddbd v1.5.2PL0 Copyright (c) Steve Scherf et al.
# Submitted via: ExactAudioCopy v0.95b4
#
DISCID=eb11da12
DTITLE=Van Morrison - Acoustic Studio Demos 1968-1971
DYEAR=1900
DGENRE=Folk/Rock
TTITLE0=The Way That Young Lovers Do
TTITLE1=Ballerina
TTITLE2=And It Stoned Me
TTITLE3=Caravan
TTITLE4=Come Running
TTITLE5=These Dreams of You
TTITLE6=Brand New Day
TTITLE7=Domino
TTITLE8=If I Ever Needed Someone
TTITLE9=Wild Night
TTITLE10=When That Evening Sun Goes Down
TTITLE11=Nobody Really Knows
TTITLE12=Bit By Bit
TTITLE13=Hey Where Are You
TTITLE14=I Need Your Kind of Loving
TTITLE15=Lorna
TTITLE16=Rock and Roll Band
TTITLE17=Funny Face
EXTD=
EXTT0=
EXTT1=
EXTT2=
EXTT3=
EXTT4=
EXTT5=
EXTT6=
EXTT7=
EXTT8=
EXTT9=
EXTT10=
EXTT11=
EXTT12=
EXTT13=
EXTT14=
EXTT15=
EXTT16=
EXTT17=
PLAYORDER=
